<?xml version="1.0" encoding="utf-8"?>
<!-- Generator: Adobe Illustrator 26.3.1, SVG Export Plug-In . SVG Version: 6.00 Build 0)  -->
<svg version="1.1" id="Ebene_1" xmlns="http://www.w3.org/2000/svg" xmlns:xlink="http://www.w3.org/1999/xlink" x="0px" y="0px"
	 viewBox="0 0 96 96" style="enable-background:new 0 0 96 96;" xml:space="preserve">
<style type="text/css">
	.st0{fill:#273746;stroke:#000000;stroke-width:4;stroke-linejoin:round;}
</style>
<path d="M88,68H62.2c0.1-0.7,0.2-1.5,0.3-2.2H64c1.7,0,3-1.3,3-3s-1.3-3-3-3h-1.7c-0.3-2-0.9-4-1.7-5.9l4.5-1.7
	c1.6-0.6,2.3-2.3,1.8-3.9c-0.6-1.6-2.3-2.3-3.9-1.8l-5.5,2c-1.3-1.7-2.9-3.2-4.6-4.5l3.2-5.8c0.8-1.4,0.3-3.3-1.1-4.1
	c-1.4-0.8-3.3-0.3-4.1,1.1c0,0,0,0,0,0.1L47.7,41c-2.1-0.9-4.4-1.5-6.7-1.8v-5c0-1.7-1.3-3-3-3s-3,1.3-3,3v5
	c-2.4,0.3-4.7,0.9-6.8,1.8L25,35.3c-0.8-1.5-2.6-2-4.1-1.2c-1.5,0.8-2,2.6-1.2,4.1c0,0,0,0,0,0.1l3.2,5.8c-1.7,1.3-3.3,2.8-4.6,4.6
	l-5.2-1.8c-1.6-0.6-3.3,0.3-3.8,1.8c-0.6,1.6,0.3,3.3,1.8,3.8l4.1,1.4c-0.8,1.9-1.4,3.9-1.7,5.9H12c-1.7,0-3,1.3-3,3
	c0,1.7,1.3,3,3,3h1.4c0.1,0.7,0.2,1.5,0.3,2.2H8c-1.7,0-3,1.3-3,3s1.3,3,3,3h80c1.7,0,3-1.3,3-3S89.7,68,88,68z M19.7,67.4
	c-0.3-1.2-0.4-2.5-0.4-3.8c0.2-10.3,8.8-18.5,19.1-18.2c10,0.2,18,8.3,18.2,18.2c0,1.3-0.1,2.5-0.4,3.8c0,0.2-0.1,0.4-0.1,0.6H19.7
	C19.7,67.8,19.7,67.6,19.7,67.4z"/>
<path d="M37.9,67.3c5,0,9-4,9-9c0-5-4-9-9-9s-9,4-9,9c0,2.4,0.9,4.7,2.6,6.4C33.3,66.4,35.6,67.3,37.9,67.3z M34,54.4
	c2.2-2.2,5.7-2.2,7.8,0c2.2,2.2,2.2,5.7,0,7.8c-2.2,2.2-5.7,2.2-7.8,0c0,0,0,0,0,0C31.9,60.1,31.9,56.6,34,54.4
	C34,54.4,34,54.4,34,54.4z"/>
<path class="st0" d="M85.1,69.5l-11.1-0.7l7.3-8.2L72.2,60L88,45l-3.8,11.5l8.6,0.6L85.1,69.5z"/>
</svg>
